<mxfile host="app.diagrams.net" agent="Mozilla/5.0 (Macintosh; Intel Mac OS X 10_15_7) AppleWebKit/537.36 (KHTML, like Gecko) Chrome/135.0.0.0 Safari/537.36" version="24.8.3">
  <diagram name="Página-1" id="kNoKbM3Uj1uUgjhieEq9">
    <mxGraphModel dx="1327" dy="748" grid="1" gridSize="10" guides="1" tooltips="1" connect="1" arrows="1" fold="1" page="1" pageScale="1" pageWidth="827" pageHeight="1169" math="0" shadow="0">
      <root>
        <mxCell id="0" />
        <mxCell id="1" parent="0" />
        <mxCell id="3QouirEe897pZpGqHXV_-1" value="servidorBD" style="verticalAlign=top;align=left;spacingTop=8;spacingLeft=2;spacingRight=12;shape=cube;size=10;direction=south;fontStyle=4;html=1;whiteSpace=wrap;" vertex="1" parent="1">
          <mxGeometry x="90" y="10" width="240" height="160" as="geometry" />
        </mxCell>
        <mxCell id="3QouirEe897pZpGqHXV_-2" value="navegador web del cliente&lt;div&gt;&lt;br&gt;&lt;/div&gt;" style="verticalAlign=top;align=left;spacingTop=8;spacingLeft=2;spacingRight=12;shape=cube;size=10;direction=south;fontStyle=4;html=1;whiteSpace=wrap;" vertex="1" parent="1">
          <mxGeometry x="280" y="240" width="180" height="120" as="geometry" />
        </mxCell>
        <mxCell id="3QouirEe897pZpGqHXV_-4" value="&lt;p style=&quot;margin:0px;margin-top:6px;text-align:center;&quot;&gt;&lt;b&gt;Component&lt;/b&gt;&lt;/p&gt;&lt;hr size=&quot;1&quot; style=&quot;border-style:solid;&quot;&gt;&lt;p style=&quot;margin:0px;margin-left:8px;&quot;&gt;&amp;lt;&amp;lt;artifact&amp;gt;&amp;gt; administrador&amp;nbsp;&lt;br&gt;&lt;br&gt;&lt;/p&gt;" style="align=left;overflow=fill;html=1;dropTarget=0;whiteSpace=wrap;" vertex="1" parent="1">
          <mxGeometry x="190" y="90" width="120" height="60" as="geometry" />
        </mxCell>
        <mxCell id="3QouirEe897pZpGqHXV_-5" value="" style="shape=component;jettyWidth=8;jettyHeight=4;" vertex="1" parent="3QouirEe897pZpGqHXV_-4">
          <mxGeometry x="1" width="20" height="20" relative="1" as="geometry">
            <mxPoint x="-24" y="4" as="offset" />
          </mxGeometry>
        </mxCell>
        <mxCell id="3QouirEe897pZpGqHXV_-8" value="inicio de sesión&amp;nbsp;&amp;nbsp;" style="shape=module;align=left;spacingLeft=20;align=center;verticalAlign=top;whiteSpace=wrap;html=1;" vertex="1" parent="1">
          <mxGeometry x="170" y="30" width="100" height="50" as="geometry" />
        </mxCell>
        <mxCell id="3QouirEe897pZpGqHXV_-9" value="BD usuarios" style="html=1;whiteSpace=wrap;" vertex="1" parent="1">
          <mxGeometry x="120" y="130" width="60" height="30" as="geometry" />
        </mxCell>
        <mxCell id="3QouirEe897pZpGqHXV_-10" style="edgeStyle=orthogonalEdgeStyle;rounded=0;orthogonalLoop=1;jettySize=auto;html=1;entryX=0.482;entryY=-0.056;entryDx=0;entryDy=0;entryPerimeter=0;exitX=0.094;exitY=0.496;exitDx=0;exitDy=0;exitPerimeter=0;" edge="1" parent="1" source="3QouirEe897pZpGqHXV_-8" target="3QouirEe897pZpGqHXV_-9">
          <mxGeometry relative="1" as="geometry">
            <Array as="points">
              <mxPoint x="149" y="55" />
            </Array>
          </mxGeometry>
        </mxCell>
        <mxCell id="3QouirEe897pZpGqHXV_-16" style="edgeStyle=orthogonalEdgeStyle;rounded=0;orthogonalLoop=1;jettySize=auto;html=1;curved=0;" edge="1" parent="1" source="3QouirEe897pZpGqHXV_-14" target="3QouirEe897pZpGqHXV_-17">
          <mxGeometry relative="1" as="geometry">
            <mxPoint x="280" y="280" as="targetPoint" />
          </mxGeometry>
        </mxCell>
        <mxCell id="3QouirEe897pZpGqHXV_-14" value="" style="shape=umlLifeline;perimeter=lifelinePerimeter;whiteSpace=wrap;html=1;container=1;dropTarget=0;collapsible=0;recursiveResize=0;outlineConnect=0;portConstraint=eastwest;newEdgeStyle={&quot;curved&quot;:0,&quot;rounded&quot;:0};participant=umlBoundary;" vertex="1" parent="1">
          <mxGeometry x="270" y="40" width="20" height="20" as="geometry" />
        </mxCell>
        <mxCell id="3QouirEe897pZpGqHXV_-24" style="edgeStyle=orthogonalEdgeStyle;rounded=0;orthogonalLoop=1;jettySize=auto;html=1;exitX=1;exitY=0.5;exitDx=0;exitDy=0;entryX=0.999;entryY=0.381;entryDx=0;entryDy=0;entryPerimeter=0;" edge="1" parent="1">
          <mxGeometry relative="1" as="geometry">
            <mxPoint x="430" y="305.16" as="sourcePoint" />
            <mxPoint x="608.5600000000001" y="179.99999999999997" as="targetPoint" />
            <Array as="points">
              <mxPoint x="609" y="305" />
              <mxPoint x="609" y="190" />
              <mxPoint x="610" y="190" />
              <mxPoint x="610" y="200" />
              <mxPoint x="609" y="200" />
            </Array>
          </mxGeometry>
        </mxCell>
        <mxCell id="3QouirEe897pZpGqHXV_-17" value="interfaz de las pantallas" style="shape=module;align=left;spacingLeft=20;align=center;verticalAlign=top;whiteSpace=wrap;html=1;" vertex="1" parent="1">
          <mxGeometry x="340" y="280" width="100" height="50" as="geometry" />
        </mxCell>
        <mxCell id="3QouirEe897pZpGqHXV_-18" value="adminostrador" style="verticalAlign=top;align=left;spacingTop=8;spacingLeft=2;spacingRight=12;shape=cube;size=10;direction=south;fontStyle=4;html=1;whiteSpace=wrap;" vertex="1" parent="1">
          <mxGeometry x="470" y="20" width="240" height="160" as="geometry" />
        </mxCell>
        <mxCell id="3QouirEe897pZpGqHXV_-19" value="listado de datos personales requeridos para el inicio de sesión&amp;nbsp;&amp;nbsp;" style="shape=module;align=left;spacingLeft=20;align=center;verticalAlign=top;whiteSpace=wrap;html=1;" vertex="1" parent="1">
          <mxGeometry x="550" y="40" width="120" height="70" as="geometry" />
        </mxCell>
        <mxCell id="3QouirEe897pZpGqHXV_-20" value="BD usuarios" style="html=1;whiteSpace=wrap;" vertex="1" parent="1">
          <mxGeometry x="500" y="140" width="60" height="30" as="geometry" />
        </mxCell>
        <mxCell id="3QouirEe897pZpGqHXV_-21" style="edgeStyle=orthogonalEdgeStyle;rounded=0;orthogonalLoop=1;jettySize=auto;html=1;entryX=0.456;entryY=0.067;entryDx=0;entryDy=0;entryPerimeter=0;exitX=0.094;exitY=0.496;exitDx=0;exitDy=0;exitPerimeter=0;" edge="1" parent="1" target="3QouirEe897pZpGqHXV_-20">
          <mxGeometry relative="1" as="geometry">
            <Array as="points">
              <mxPoint x="527" y="66" />
            </Array>
            <mxPoint x="560.0000000000001" y="66.39999999999998" as="sourcePoint" />
            <mxPoint x="527.6400000000001" y="130" as="targetPoint" />
          </mxGeometry>
        </mxCell>
        <mxCell id="3QouirEe897pZpGqHXV_-22" value="datos" style="shape=umlLifeline;perimeter=lifelinePerimeter;whiteSpace=wrap;html=1;container=1;dropTarget=0;collapsible=0;recursiveResize=0;outlineConnect=0;portConstraint=eastwest;newEdgeStyle={&quot;curved&quot;:0,&quot;rounded&quot;:0};participant=umlBoundary;rotation=90;" vertex="1" parent="1">
          <mxGeometry x="575" y="132.5" width="70" height="25" as="geometry" />
        </mxCell>
        <mxCell id="3QouirEe897pZpGqHXV_-25" style="edgeStyle=orthogonalEdgeStyle;rounded=0;orthogonalLoop=1;jettySize=auto;html=1;exitX=1;exitY=0.5;exitDx=0;exitDy=0;entryX=0;entryY=0;entryDx=85;entryDy=240;entryPerimeter=0;" edge="1" parent="1" source="3QouirEe897pZpGqHXV_-4" target="3QouirEe897pZpGqHXV_-18">
          <mxGeometry relative="1" as="geometry">
            <Array as="points">
              <mxPoint x="310" y="105" />
            </Array>
          </mxGeometry>
        </mxCell>
      </root>
    </mxGraphModel>
  </diagram>
</mxfile>
